<?xml version="1.0" encoding="iso-8859-1"?>
<!-- Generator: Adobe Illustrator 21.0.0, SVG Export Plug-In . SVG Version: 6.00 Build 0)  -->
<svg version="1.1" xmlns="http://www.w3.org/2000/svg" xmlns:xlink="http://www.w3.org/1999/xlink" x="0px" y="0px" width="2800px"
	 height="2800px" viewBox="0 0 2800 2800" enable-background="new 0 0 2800 2800" xml:space="preserve">
<g id="BACKGROUND">
	<rect fill="#141246" width="2800" height="2800"/>
</g>
<g id="KIT1">
	<rect x="201" y="201" opacity="5.000000e-02" fill="#FFFFFF" width="1156.3" height="1156.3"/>
	<g>
		<linearGradient id="SVGID_1_" gradientUnits="userSpaceOnUse" x1="518.6196" y1="581.3722" x2="1089.2937" y2="1152.0463">
			<stop  offset="0" style="stop-color:#FF00AA"/>
			<stop  offset="1" style="stop-color:#2A00E6"/>
		</linearGradient>
		<path fill="url(#SVGID_1_)" d="M305.8,988.8c47.3,0,47.3-284,94.7-284s47.3,189.3,94.7,189.3s47.3-94.7,94.7-94.7
			c47.3,0,47.3,94.7,94.7,94.7c47.3,0,47.3-284,94.7-284c47.3,0,47.3,142.1,94.7,142c47.3-0.1,47.3-236.7,94.7-236.7
			s47.3,142,94.7,142c47.3,0,47.3-47.3,94.7-47.3c47.3,0,47.3,142,94.7,142v236.7H305.8z"/>
		<g>
			<path fill="#FF00AA" d="M305.8,990.8v-4c22,0,34.4-74.6,45.4-140.3c12.3-73.9,23.9-143.7,49.3-143.7c25.2,0,36.9,46.7,49.3,96.2
				c11.4,45.8,23.3,93.2,45.4,93.2c22.4,0,33.7-22.5,45.5-46.2c11.9-23.8,24.2-48.4,49.1-48.4s37.2,24.6,49.1,48.4
				c11.9,23.8,23.1,46.2,45.5,46.2c22,0,34.4-74.6,45.4-140.3c12.3-73.9,23.9-143.7,49.3-143.7c25.1,0,37.4,36.8,49.2,72.4
				c11.4,34.2,23.2,69.6,45.4,69.6c0,0,0,0,0,0c22,0,33.9-59.4,45.4-116.7c12.3-61.7,24-119.9,49.3-119.9
				c25.1,0,37.4,36.8,49.2,72.4c11.4,34.2,23.2,69.6,45.4,69.6c22.8,0,34-11.2,45.9-23.1c11.9-11.9,24.3-24.3,48.7-24.3
				c25.1,0,37.4,36.8,49.2,72.4c11.4,34.2,23.2,69.6,45.4,69.6v4c-25.1,0-37.4-36.8-49.2-72.4c-11.4-34.2-23.2-69.6-45.4-69.6
				c-22.8,0-34,11.2-45.9,23.1c-11.9,11.9-24.3,24.3-48.7,24.3c-25.1,0-37.4-36.8-49.2-72.4c-11.4-34.2-23.2-69.6-45.4-69.6
				c-22,0-33.9,59.3-45.4,116.7c-12.3,61.7-24,119.9-49.3,120c0,0,0,0,0,0c-25.1,0-37.4-36.8-49.2-72.4
				c-11.4-34.2-23.2-69.6-45.4-69.6c-22,0-34.4,74.6-45.4,140.3c-12.3,73.9-23.9,143.7-49.3,143.7c-24.9,0-37.2-24.6-49.1-48.4
				c-11.9-23.8-23.1-46.2-45.5-46.2s-33.7,22.5-45.5,46.2c-11.9,23.8-24.2,48.4-49.1,48.4c-25.2,0-36.9-46.7-49.3-96.2
				c-11.4-45.8-23.3-93.2-45.4-93.2c-22,0-34.4,74.6-45.4,140.3C342.8,921,331.2,990.8,305.8,990.8z"/>
		</g>
	</g>
	<g>
		<text transform="matrix(1 0 0 1 376.978 1090.189)" fill="#FFFFFF" font-family="'Oswald-Regular'" font-size="51.5167px">10</text>
		<text transform="matrix(1 0 0 1 464.2754 1090.189)" fill="#FFFFFF" font-family="'Oswald-Regular'" font-size="51.5167px">20</text>
		<text transform="matrix(1 0 0 1 564.2373 1090.189)" fill="#FFFFFF" font-family="'Oswald-Regular'" font-size="51.5167px">30</text>
		<text transform="matrix(1 0 0 1 658.75 1090.189)" fill="#FFFFFF" font-family="'Oswald-Regular'" font-size="51.5167px">40</text>
		<text transform="matrix(1 0 0 1 753.5967 1090.189)" fill="#FFFFFF" font-family="'Oswald-Regular'" font-size="51.5167px">50</text>
		<text transform="matrix(1 0 0 1 847.5684 1090.189)" fill="#FFFFFF" font-family="'Oswald-Regular'" font-size="51.5167px">60</text>
		<text transform="matrix(1 0 0 1 945.2495 1090.189)" fill="#FFFFFF" font-family="'Oswald-Regular'" font-size="51.5167px">70</text>
		<text transform="matrix(1 0 0 1 1037.0059 1090.189)" fill="#FFFFFF" font-family="'Oswald-Regular'" font-size="51.5167px">80</text>
		<text transform="matrix(1 0 0 1 1131.5957 1090.189)" fill="#FFFFFF" font-family="'Oswald-Regular'" font-size="51.5167px">90</text>
		<text transform="matrix(1 0 0 1 1215.6758 1090.189)" fill="#FFFFFF" font-family="'Oswald-Regular'" font-size="51.5167px">100</text>
	</g>
	<g>
		<g>
			<polygon fill="#FFFFFF" points="1252.5,990.8 303.8,990.8 303.8,468.2 307.8,468.2 307.8,986.8 1252.5,986.8 			"/>
		</g>
		<g>
			<g>
				<g>
					<rect x="305.8" y="597.3" fill="#FFFFFF" width="10" height="2"/>
				</g>
				<g>
					<path fill="#FFFFFF" d="M1222.8,599.3h-19.7v-2h19.7V599.3z M1183.4,599.3h-19.7v-2h19.7V599.3z M1143.9,599.3h-19.7v-2h19.7
						V599.3z M1104.5,599.3h-19.7v-2h19.7V599.3z M1065.1,599.3h-19.7v-2h19.7V599.3z M1025.6,599.3h-19.7v-2h19.7V599.3z
						 M986.2,599.3h-19.7v-2h19.7V599.3z M946.8,599.3H927v-2h19.7V599.3z M907.3,599.3h-19.7v-2h19.7V599.3z M867.9,599.3h-19.7v-2
						h19.7V599.3z M828.5,599.3h-19.7v-2h19.7V599.3z M789,599.3h-19.7v-2H789V599.3z M749.6,599.3h-19.7v-2h19.7V599.3z
						 M710.2,599.3h-19.7v-2h19.7V599.3z M670.7,599.3H651v-2h19.7V599.3z M631.3,599.3h-19.7v-2h19.7V599.3z M591.9,599.3h-19.7v-2
						h19.7V599.3z M552.4,599.3h-19.7v-2h19.7V599.3z M513,599.3h-19.7v-2H513V599.3z M473.6,599.3h-19.7v-2h19.7V599.3z
						 M434.1,599.3h-19.7v-2h19.7V599.3z M394.7,599.3H375v-2h19.7V599.3z M355.3,599.3h-19.7v-2h19.7V599.3z"/>
				</g>
				<g>
					<rect x="1242.5" y="597.3" fill="#FFFFFF" width="10" height="2"/>
				</g>
			</g>
			<g>
				<g>
					<rect x="305.8" y="727.5" fill="#FFFFFF" width="10" height="2"/>
				</g>
				<g>
					<path fill="#FFFFFF" d="M1222.8,729.5h-19.7v-2h19.7V729.5z M1183.4,729.5h-19.7v-2h19.7V729.5z M1143.9,729.5h-19.7v-2h19.7
						V729.5z M1104.5,729.5h-19.7v-2h19.7V729.5z M1065.1,729.5h-19.7v-2h19.7V729.5z M1025.6,729.5h-19.7v-2h19.7V729.5z
						 M986.2,729.5h-19.7v-2h19.7V729.5z M946.8,729.5H927v-2h19.7V729.5z M907.3,729.5h-19.7v-2h19.7V729.5z M867.9,729.5h-19.7v-2
						h19.7V729.5z M828.5,729.5h-19.7v-2h19.7V729.5z M789,729.5h-19.7v-2H789V729.5z M749.6,729.5h-19.7v-2h19.7V729.5z
						 M710.2,729.5h-19.7v-2h19.7V729.5z M670.7,729.5H651v-2h19.7V729.5z M631.3,729.5h-19.7v-2h19.7V729.5z M591.9,729.5h-19.7v-2
						h19.7V729.5z M552.4,729.5h-19.7v-2h19.7V729.5z M513,729.5h-19.7v-2H513V729.5z M473.6,729.5h-19.7v-2h19.7V729.5z
						 M434.1,729.5h-19.7v-2h19.7V729.5z M394.7,729.5H375v-2h19.7V729.5z M355.3,729.5h-19.7v-2h19.7V729.5z"/>
				</g>
				<g>
					<rect x="1242.5" y="727.5" fill="#FFFFFF" width="10" height="2"/>
				</g>
			</g>
			<g>
				<g>
					<rect x="305.8" y="857.7" fill="#FFFFFF" width="10" height="2"/>
				</g>
				<g>
					<path fill="#FFFFFF" d="M1222.8,859.7h-19.7v-2h19.7V859.7z M1183.4,859.7h-19.7v-2h19.7V859.7z M1143.9,859.7h-19.7v-2h19.7
						V859.7z M1104.5,859.7h-19.7v-2h19.7V859.7z M1065.1,859.7h-19.7v-2h19.7V859.7z M1025.6,859.7h-19.7v-2h19.7V859.7z
						 M986.2,859.7h-19.7v-2h19.7V859.7z M946.8,859.7H927v-2h19.7V859.7z M907.3,859.7h-19.7v-2h19.7V859.7z M867.9,859.7h-19.7v-2
						h19.7V859.7z M828.5,859.7h-19.7v-2h19.7V859.7z M789,859.7h-19.7v-2H789V859.7z M749.6,859.7h-19.7v-2h19.7V859.7z
						 M710.2,859.7h-19.7v-2h19.7V859.7z M670.7,859.7H651v-2h19.7V859.7z M631.3,859.7h-19.7v-2h19.7V859.7z M591.9,859.7h-19.7v-2
						h19.7V859.7z M552.4,859.7h-19.7v-2h19.7V859.7z M513,859.7h-19.7v-2H513V859.7z M473.6,859.7h-19.7v-2h19.7V859.7z
						 M434.1,859.7h-19.7v-2h19.7V859.7z M394.7,859.7H375v-2h19.7V859.7z M355.3,859.7h-19.7v-2h19.7V859.7z"/>
				</g>
				<g>
					<rect x="1242.5" y="857.7" fill="#FFFFFF" width="10" height="2"/>
				</g>
			</g>
		</g>
	</g>
</g>
<g id="KIT2">
	<rect x="1442.7" y="201" opacity="5.000000e-02" fill="#FFFFFF" width="1156.3" height="1156.3"/>
	<g>
		<linearGradient id="SVGID_2_" gradientUnits="userSpaceOnUse" x1="1617.0389" y1="871.6851" x2="1709.3275" y2="963.9736">
			<stop  offset="0" style="stop-color:#FF00AA"/>
			<stop  offset="1" style="stop-color:#2A00E6"/>
		</linearGradient>
		<rect x="1641.9" y="846.8" fill="url(#SVGID_2_)" width="42.6" height="142"/>
		<linearGradient id="SVGID_3_" gradientUnits="userSpaceOnUse" x1="1718.2828" y1="907.1852" x2="1786.9045" y2="975.8069">
			<stop  offset="0" style="stop-color:#C1D82F"/>
			<stop  offset="0.1309" style="stop-color:#9FCE43"/>
			<stop  offset="0.2786" style="stop-color:#7FC555"/>
			<stop  offset="0.4029" style="stop-color:#6BC060"/>
			<stop  offset="0.4877" style="stop-color:#64BE64"/>
			<stop  offset="1" style="stop-color:#006FBA"/>
		</linearGradient>
		<rect x="1731.3" y="894.2" fill="url(#SVGID_3_)" width="42.6" height="94.7"/>
		<linearGradient id="SVGID_4_" gradientUnits="userSpaceOnUse" x1="1784.0265" y1="836.1849" x2="1899.9817" y2="952.1402">
			<stop  offset="0" style="stop-color:#FFFF69"/>
			<stop  offset="1" style="stop-color:#FF59A6"/>
		</linearGradient>
		<rect x="1820.7" y="799.5" fill="url(#SVGID_4_)" width="42.6" height="189.3"/>
		<linearGradient id="SVGID_5_" gradientUnits="userSpaceOnUse" x1="1837.9368" y1="729.6844" x2="2024.8923" y2="916.64">
			<stop  offset="0" style="stop-color:#FF00AA"/>
			<stop  offset="1" style="stop-color:#2A00E6"/>
		</linearGradient>
		<rect x="1910.1" y="657.5" fill="url(#SVGID_5_)" width="42.6" height="331.3"/>
		<linearGradient id="SVGID_6_" gradientUnits="userSpaceOnUse" x1="1951.0139" y1="800.6848" x2="2090.636" y2="940.3068">
			<stop  offset="0" style="stop-color:#C1D82F"/>
			<stop  offset="0.1309" style="stop-color:#9FCE43"/>
			<stop  offset="0.2786" style="stop-color:#7FC555"/>
			<stop  offset="0.4029" style="stop-color:#6BC060"/>
			<stop  offset="0.4877" style="stop-color:#64BE64"/>
			<stop  offset="1" style="stop-color:#006FBA"/>
		</linearGradient>
		<rect x="1999.5" y="752.2" fill="url(#SVGID_6_)" width="42.6" height="236.7"/>
		<linearGradient id="SVGID_7_" gradientUnits="userSpaceOnUse" x1="2028.5909" y1="765.1846" x2="2191.8799" y2="928.4734">
			<stop  offset="0" style="stop-color:#FFFF69"/>
			<stop  offset="1" style="stop-color:#FF59A6"/>
		</linearGradient>
		<rect x="2088.9" y="704.8" fill="url(#SVGID_7_)" width="42.6" height="284"/>
		<linearGradient id="SVGID_8_" gradientUnits="userSpaceOnUse" x1="2094.3347" y1="694.1843" x2="2304.957" y2="904.8066">
			<stop  offset="0" style="stop-color:#FF00AA"/>
			<stop  offset="1" style="stop-color:#2A00E6"/>
		</linearGradient>
		<rect x="2178.4" y="610.2" fill="url(#SVGID_8_)" width="42.6" height="378.7"/>
		<linearGradient id="SVGID_9_" gradientUnits="userSpaceOnUse" x1="2148.2449" y1="587.6839" x2="2429.8674" y2="869.3065">
			<stop  offset="0" style="stop-color:#C1D82F"/>
			<stop  offset="0.1309" style="stop-color:#9FCE43"/>
			<stop  offset="0.2786" style="stop-color:#7FC555"/>
			<stop  offset="0.4029" style="stop-color:#6BC060"/>
			<stop  offset="0.4877" style="stop-color:#64BE64"/>
			<stop  offset="1" style="stop-color:#006FBA"/>
		</linearGradient>
		<rect x="2267.8" y="468.2" fill="url(#SVGID_9_)" width="42.6" height="520.7"/>
		<linearGradient id="SVGID_10_" gradientUnits="userSpaceOnUse" x1="2261.322" y1="658.6841" x2="2495.6113" y2="892.9733">
			<stop  offset="0" style="stop-color:#FFFF69"/>
			<stop  offset="1" style="stop-color:#FF59A6"/>
		</linearGradient>
		<rect x="2357.2" y="562.8" fill="url(#SVGID_10_)" width="42.6" height="426"/>
		<linearGradient id="SVGID_11_" gradientUnits="userSpaceOnUse" x1="2327.0657" y1="587.6839" x2="2608.6885" y2="869.3065">
			<stop  offset="0" style="stop-color:#FF00AA"/>
			<stop  offset="1" style="stop-color:#2A00E6"/>
		</linearGradient>
		<rect x="2446.6" y="468.2" fill="url(#SVGID_11_)" width="42.6" height="520.7"/>
	</g>
	<g>
		<text transform="matrix(1 0 0 1 1639.666 1090.189)" fill="#FFFFFF" font-family="'Oswald-Regular'" font-size="51.5167px">10</text>
		<text transform="matrix(1 0 0 1 1726.9639 1090.189)" fill="#FFFFFF" font-family="'Oswald-Regular'" font-size="51.5167px">20</text>
		<text transform="matrix(1 0 0 1 1816.4004 1090.189)" fill="#FFFFFF" font-family="'Oswald-Regular'" font-size="51.5167px">30</text>
		<text transform="matrix(1 0 0 1 1905.6562 1090.189)" fill="#FFFFFF" font-family="'Oswald-Regular'" font-size="51.5167px">40</text>
		<text transform="matrix(1 0 0 1 1995.2471 1090.189)" fill="#FFFFFF" font-family="'Oswald-Regular'" font-size="51.5167px">50</text>
		<text transform="matrix(1 0 0 1 2083.9619 1090.189)" fill="#FFFFFF" font-family="'Oswald-Regular'" font-size="51.5167px">60</text>
		<text transform="matrix(1 0 0 1 2176.3857 1090.189)" fill="#FFFFFF" font-family="'Oswald-Regular'" font-size="51.5167px">70</text>
		<text transform="matrix(1 0 0 1 2262.8857 1090.189)" fill="#FFFFFF" font-family="'Oswald-Regular'" font-size="51.5167px">80</text>
		<text transform="matrix(1 0 0 1 2352.2188 1090.189)" fill="#FFFFFF" font-family="'Oswald-Regular'" font-size="51.5167px">90</text>
		<text transform="matrix(1 0 0 1 2431.043 1090.189)" fill="#FFFFFF" font-family="'Oswald-Regular'" font-size="51.5167px">100</text>
	</g>
	<g>
		<g>
			<polygon fill="#FFFFFF" points="2494.2,990.8 1545.5,990.8 1545.5,468.2 1549.5,468.2 1549.5,986.8 2494.2,986.8 			"/>
		</g>
		<g>
			<g>
				<g>
					<rect x="1547.5" y="597.3" fill="#FFFFFF" width="10" height="2"/>
				</g>
				<g>
					<path fill="#FFFFFF" d="M2464.4,599.3h-19.7v-2h19.7V599.3z M2425,599.3h-19.7v-2h19.7V599.3z M2385.6,599.3h-19.7v-2h19.7
						V599.3z M2346.1,599.3h-19.7v-2h19.7V599.3z M2306.7,599.3H2287v-2h19.7V599.3z M2267.3,599.3h-19.7v-2h19.7V599.3z
						 M2227.8,599.3h-19.7v-2h19.7V599.3z M2188.4,599.3h-19.7v-2h19.7V599.3z M2149,599.3h-19.7v-2h19.7V599.3z M2109.5,599.3
						h-19.7v-2h19.7V599.3z M2070.1,599.3h-19.7v-2h19.7V599.3z M2030.7,599.3H2011v-2h19.7V599.3z M1991.3,599.3h-19.7v-2h19.7
						V599.3z M1951.8,599.3h-19.7v-2h19.7V599.3z M1912.4,599.3h-19.7v-2h19.7V599.3z M1873,599.3h-19.7v-2h19.7V599.3z
						 M1833.5,599.3h-19.7v-2h19.7V599.3z M1794.1,599.3h-19.7v-2h19.7V599.3z M1754.7,599.3h-19.7v-2h19.7V599.3z M1715.2,599.3
						h-19.7v-2h19.7V599.3z M1675.8,599.3h-19.7v-2h19.7V599.3z M1636.4,599.3h-19.7v-2h19.7V599.3z M1596.9,599.3h-19.7v-2h19.7
						V599.3z"/>
				</g>
				<g>
					<rect x="2484.2" y="597.3" fill="#FFFFFF" width="10" height="2"/>
				</g>
			</g>
			<g>
				<g>
					<rect x="1547.5" y="727.5" fill="#FFFFFF" width="10" height="2"/>
				</g>
				<g>
					<path fill="#FFFFFF" d="M2464.4,729.5h-19.7v-2h19.7V729.5z M2425,729.5h-19.7v-2h19.7V729.5z M2385.6,729.5h-19.7v-2h19.7
						V729.5z M2346.1,729.5h-19.7v-2h19.7V729.5z M2306.7,729.5H2287v-2h19.7V729.5z M2267.3,729.5h-19.7v-2h19.7V729.5z
						 M2227.8,729.5h-19.7v-2h19.7V729.5z M2188.4,729.5h-19.7v-2h19.7V729.5z M2149,729.5h-19.7v-2h19.7V729.5z M2109.5,729.5
						h-19.7v-2h19.7V729.5z M2070.1,729.5h-19.7v-2h19.7V729.5z M2030.7,729.5H2011v-2h19.7V729.5z M1991.3,729.5h-19.7v-2h19.7
						V729.5z M1951.8,729.5h-19.7v-2h19.7V729.5z M1912.4,729.5h-19.7v-2h19.7V729.5z M1873,729.5h-19.7v-2h19.7V729.5z
						 M1833.5,729.5h-19.7v-2h19.7V729.5z M1794.1,729.5h-19.7v-2h19.7V729.5z M1754.7,729.5h-19.7v-2h19.7V729.5z M1715.2,729.5
						h-19.7v-2h19.7V729.5z M1675.8,729.5h-19.7v-2h19.7V729.5z M1636.4,729.5h-19.7v-2h19.7V729.5z M1596.9,729.5h-19.7v-2h19.7
						V729.5z"/>
				</g>
				<g>
					<rect x="2484.2" y="727.5" fill="#FFFFFF" width="10" height="2"/>
				</g>
			</g>
			<g>
				<g>
					<rect x="1547.5" y="857.7" fill="#FFFFFF" width="10" height="2"/>
				</g>
				<g>
					<path fill="#FFFFFF" d="M2464.4,859.7h-19.7v-2h19.7V859.7z M2425,859.7h-19.7v-2h19.7V859.7z M2385.6,859.7h-19.7v-2h19.7
						V859.7z M2346.1,859.7h-19.7v-2h19.7V859.7z M2306.7,859.7H2287v-2h19.7V859.7z M2267.3,859.7h-19.7v-2h19.7V859.7z
						 M2227.8,859.7h-19.7v-2h19.7V859.7z M2188.4,859.7h-19.7v-2h19.7V859.7z M2149,859.7h-19.7v-2h19.7V859.7z M2109.5,859.7
						h-19.7v-2h19.7V859.7z M2070.1,859.7h-19.7v-2h19.7V859.7z M2030.7,859.7H2011v-2h19.7V859.7z M1991.3,859.7h-19.7v-2h19.7
						V859.7z M1951.8,859.7h-19.7v-2h19.7V859.7z M1912.4,859.7h-19.7v-2h19.7V859.7z M1873,859.7h-19.7v-2h19.7V859.7z
						 M1833.5,859.7h-19.7v-2h19.7V859.7z M1794.1,859.7h-19.7v-2h19.7V859.7z M1754.7,859.7h-19.7v-2h19.7V859.7z M1715.2,859.7
						h-19.7v-2h19.7V859.7z M1675.8,859.7h-19.7v-2h19.7V859.7z M1636.4,859.7h-19.7v-2h19.7V859.7z M1596.9,859.7h-19.7v-2h19.7
						V859.7z"/>
				</g>
				<g>
					<rect x="2484.2" y="857.7" fill="#FFFFFF" width="10" height="2"/>
				</g>
			</g>
		</g>
	</g>
</g>
<g id="KIT3">
	<rect x="201" y="1442.7" opacity="5.000000e-02" fill="#FFFFFF" width="1156.3" height="1156.3"/>
	<g>
		<g>
			<linearGradient id="SVGID_12_" gradientUnits="userSpaceOnUse" x1="446.052" y1="1772.8081" x2="942.0861" y2="2268.8423">
				<stop  offset="0" style="stop-color:#FF00AA"/>
				<stop  offset="1" style="stop-color:#2A00E6"/>
			</linearGradient>
			<path fill="url(#SVGID_12_)" d="M779.2,2431.8c-55.4,0-109.3-10.9-160-32.3c-48.9-20.7-92.9-50.3-130.6-88
				c-37.7-37.7-67.3-81.6-88-130.6c-21.5-50.7-32.3-104.6-32.3-160c0-55.4,10.9-109.3,32.3-160c20.7-48.9,50.3-92.9,88-130.6
				c37.7-37.7,81.6-67.3,130.6-88c50.7-21.5,104.6-32.3,160-32.3v214.8c-52.4,0-101.6,20.4-138.6,57.4c-37,37-57.4,86.3-57.4,138.6
				c0,52.4,20.4,101.6,57.4,138.6c37,37,86.3,57.4,138.6,57.4V2431.8z"/>
		</g>
		<linearGradient id="SVGID_13_" gradientUnits="userSpaceOnUse" x1="768.0155" y1="1621.0562" x2="1178.9436" y2="2031.9843">
			<stop  offset="0" style="stop-color:#C1D82F"/>
			<stop  offset="0.1309" style="stop-color:#9FCE43"/>
			<stop  offset="0.2786" style="stop-color:#7FC555"/>
			<stop  offset="0.4029" style="stop-color:#6BC060"/>
			<stop  offset="0.4877" style="stop-color:#64BE64"/>
			<stop  offset="1" style="stop-color:#006FBA"/>
		</linearGradient>
		<path fill="url(#SVGID_13_)" d="M1157.8,1860.8c-20.7-48.9-50.3-92.9-88-130.6c-37.7-37.7-81.6-67.3-130.6-88
			c-50.7-21.5-104.6-32.3-160-32.3v214.8c52.4,0,101.6,20.4,138.6,57.4c37,37,57.4,86.3,57.4,138.6h214.8
			C1190.1,1965.4,1179.2,1911.6,1157.8,1860.8z"/>
		<linearGradient id="SVGID_14_" gradientUnits="userSpaceOnUse" x1="984.6387" y1="2020.8253" x2="984.6387" y2="2431.7532">
			<stop  offset="0" style="stop-color:#FFFF69"/>
			<stop  offset="1" style="stop-color:#FF59A6"/>
		</linearGradient>
		<path fill="url(#SVGID_14_)" d="M975.3,2020.8c0,52.4-20.4,101.6-57.4,138.6c-37,37-86.3,57.4-138.6,57.4v214.8
			c55.4,0,109.3-10.9,160-32.3c48.9-20.7,92.9-50.3,130.6-88c37.7-37.7,67.3-81.6,88-130.6c21.5-50.7,32.3-104.6,32.3-160H975.3z"/>
		<g>
			<g>
				<path fill="#FFFFFF" d="M779.2,2435.8c-56,0-110.4-11-161.5-32.6c-49.4-20.9-93.8-50.8-131.9-88.9
					c-38.1-38.1-68-82.5-88.9-131.9c-21.6-51.2-32.6-105.5-32.6-161.5c0-56,11-110.4,32.6-161.5c20.9-49.4,50.8-93.8,88.9-131.9
					c38.1-38.1,82.5-68,131.9-88.9c51.2-21.6,105.5-32.6,161.5-32.6s110.4,11,161.5,32.6c49.4,20.9,93.8,50.8,131.9,88.9
					c38.1,38.1,68,82.5,88.9,131.9c21.6,51.2,32.6,105.5,32.6,161.5c0,56-11,110.4-32.6,161.5c-20.9,49.4-50.8,93.8-88.9,131.9
					c-38.1,38.1-82.5,68-131.9,88.9C889.5,2424.8,835.2,2435.8,779.2,2435.8z M779.2,1613.9c-54.9,0-108.2,10.8-158.4,32
					c-48.5,20.5-92,49.8-129.3,87.2s-66.7,80.9-87.2,129.3c-21.2,50.2-32,103.5-32,158.4s10.8,108.2,32,158.4
					c20.5,48.5,49.8,92,87.2,129.3s80.9,66.7,129.3,87.2c50.2,21.2,103.5,32,158.4,32c54.9,0,108.2-10.8,158.4-32
					c48.5-20.5,92-49.8,129.3-87.2s66.7-80.9,87.2-129.3c21.2-50.2,32-103.5,32-158.4s-10.8-108.2-32-158.4
					c-20.5-48.5-49.8-92-87.2-129.3s-80.9-66.7-129.3-87.2C887.4,1624.7,834.1,1613.9,779.2,1613.9z"/>
			</g>
			<g>
				<path fill="#FFFFFF" d="M779.2,2220.9c-110.3,0-200.1-89.8-200.1-200.1s89.8-200.1,200.1-200.1s200.1,89.8,200.1,200.1
					S889.5,2220.9,779.2,2220.9z M779.2,1828.7c-105.9,0-192.1,86.2-192.1,192.1s86.2,192.1,192.1,192.1s192.1-86.2,192.1-192.1
					S885.1,1828.7,779.2,1828.7z"/>
			</g>
		</g>
	</g>
	<text transform="matrix(1 0 0 1 429.4028 2052.209)" fill="#FFFFFF" font-family="'Oswald-Regular'" font-size="52px">50%</text>
	<text transform="matrix(1 0 0 1 955.0059 1842.7314)" fill="#FFFFFF" font-family="'Oswald-Regular'" font-size="52px">25%</text>
	<text transform="matrix(1 0 0 1 955.0059 2265.2666)" fill="#FFFFFF" font-family="'Oswald-Regular'" font-size="52px">25%</text>
</g>
<g id="KIT4">
	<rect x="1442.7" y="1442.7" opacity="5.000000e-02" fill="#FFFFFF" width="1156.3" height="1156.3"/>
	<g>
		<linearGradient id="SVGID_15_" gradientUnits="userSpaceOnUse" x1="1773.5698" y1="2090.2971" x2="2317.5405" y2="2634.2678">
			<stop  offset="0" style="stop-color:#FF00AA"/>
			<stop  offset="1" style="stop-color:#2A00E6"/>
		</linearGradient>
		<polygon fill="url(#SVGID_15_)" points="2425.2,2267.4 2330.3,2103 1760.9,2103 1666,2267.4 1571.1,2431.8 2520.1,2431.8 		"/>
		<g>
			<path fill="#FFFFFF" d="M2527,2435.8h-962.9l194.4-336.7h574L2527,2435.8z M1578,2427.8h935.1L2327.9,2107h-564.8L1578,2427.8z"
				/>
		</g>
	</g>
	<g>
		<linearGradient id="SVGID_16_" gradientUnits="userSpaceOnUse" x1="1877.1536" y1="1882.506" x2="2213.9568" y2="2219.3091">
			<stop  offset="0" style="stop-color:#C1D82F"/>
			<stop  offset="0.1309" style="stop-color:#9FCE43"/>
			<stop  offset="0.2786" style="stop-color:#7FC555"/>
			<stop  offset="0.4029" style="stop-color:#6BC060"/>
			<stop  offset="0.4877" style="stop-color:#64BE64"/>
			<stop  offset="1" style="stop-color:#006FBA"/>
		</linearGradient>
		<polygon fill="url(#SVGID_16_)" points="2187.9,1856.5 1903.2,1856.5 1855.8,1938.6 1760.9,2103 2330.3,2103 2235.4,1938.6 		"/>
		<g>
			<path fill="#FFFFFF" d="M2337.2,2107h-583.3l147-254.6h289.3L2337.2,2107z M1767.8,2099h555.5l-137.7-238.6h-280.1L1767.8,2099z"
				/>
		</g>
	</g>
	<g>
		<linearGradient id="SVGID_17_" gradientUnits="userSpaceOnUse" x1="1948.3284" y1="1707.1237" x2="2142.7817" y2="1901.577">
			<stop  offset="0" style="stop-color:#FFFF69"/>
			<stop  offset="1" style="stop-color:#FF59A6"/>
		</linearGradient>
		<polygon fill="url(#SVGID_17_)" points="2140.5,1774.3 2045.6,1609.9 1950.7,1774.3 1903.2,1856.5 2187.9,1856.5 		"/>
		<g>
			<path fill="#FFFFFF" d="M2194.8,1860.5h-298.6l149.3-258.6L2194.8,1860.5z M1910.1,1852.5H2181l-135.4-234.6L1910.1,1852.5z"/>
		</g>
	</g>
	<text transform="matrix(1 0 0 1 1996.5717 2283.4507)" fill="#FFFFFF" font-family="'Oswald-Regular'" font-size="52px">50%</text>
	<text transform="matrix(1 0 0 1 1997.5845 1784.0713)" fill="#FFFFFF" font-family="'Oswald-Regular'" font-size="52px">25%</text>
	<text transform="matrix(1 0 0 1 1997.5853 1995.8004)" fill="#FFFFFF" font-family="'Oswald-Regular'" font-size="52px">25%</text>
</g>
</svg>
